<svg width="512" height="512" viewBox="0 0 512 512" fill="none" xmlns="http://www.w3.org/2000/svg">
<rect width="512" height="512" rx="110" fill="#4F46E5"/>
<path d="M247.968 459.76C227.488 459.76 209.056 456.517 192.672 450.032C176.288 443.888 162.123 436.379 150.176 427.504L161.952 403.44C168.779 409.243 176.629 414.363 185.504 418.8C194.379 423.579 204.107 427.333 214.688 430.064C225.611 432.795 237.216 434.16 249.504 434.16C269.984 434.16 287.733 429.893 302.752 421.36C317.771 413.168 329.205 400.709 337.056 383.984C345.248 367.6 349.344 347.12 349.344 322.544V272.368L356.512 265.712C352.075 281.072 344.395 294.896 333.472 307.184C322.549 319.472 309.237 329.2 293.536 336.368C278.176 343.536 261.451 347.12 243.36 347.12C219.125 347.12 197.451 341.147 178.336 329.2C159.221 317.253 144.032 300.869 132.768 280.048C121.845 259.227 116.384 235.504 116.384 208.88C116.384 181.915 122.016 158.021 133.28 137.2C144.885 116.379 160.245 99.9947 179.36 88.048C198.475 76.1013 219.808 70.128 243.36 70.128C254.283 70.128 264.693 71.4933 274.592 74.224C284.832 76.9547 294.219 80.7093 302.752 85.488C311.627 90.2667 319.648 96.0693 326.816 102.896C333.984 109.723 339.957 117.232 344.736 125.424C349.856 133.616 353.781 142.32 356.512 151.536L346.784 144.88L349.344 75.76H374.944V325.616C374.944 347.12 371.872 366.064 365.728 382.448C359.584 399.173 350.709 413.168 339.104 424.432C327.84 436.037 314.357 444.741 298.656 450.544C283.296 456.688 266.4 459.76 247.968 459.76ZM246.944 321.52C266.4 321.52 283.808 316.741 299.168 307.184C314.869 297.285 327.157 283.973 336.032 267.248C345.248 250.181 349.856 230.555 349.856 208.368C349.856 186.523 345.419 167.237 336.544 150.512C327.669 133.445 315.381 120.133 299.68 110.576C284.32 100.677 266.741 95.728 246.944 95.728C226.805 95.728 208.885 100.677 193.184 110.576C177.824 120.133 165.707 133.445 156.832 150.512C147.957 167.237 143.52 186.523 143.52 208.368C143.52 229.872 147.787 249.157 156.32 266.224C165.195 283.291 177.312 296.773 192.672 306.672C208.373 316.571 226.464 321.52 246.944 321.52Z" fill="white"/>
</svg>
